<svg width="471" height="109" viewBox="0 0 471 109" fill="none" xmlns="http://www.w3.org/2000/svg">
<g style="mix-blend-mode:darken" clip-path="url(#clip0_5_772)">
<rect width="471" height="109" fill="white"/>
<path d="M449.591 0H21.4091V99.0909H449.591V0Z" fill="white"/>
<path d="M57.3633 9.90909H54.0947V89.1818H57.3633V9.90909Z" fill="url(#paint0_linear_5_772)"/>
<path d="M70.4375 9.90909H67.169V89.1818H70.4375V9.90909Z" fill="url(#paint1_linear_5_772)"/>
<path d="M83.5118 9.90909H73.7061V89.1818H83.5118V9.90909Z" fill="url(#paint2_linear_5_772)"/>
<path d="M96.5861 9.90909H86.7804V89.1818H96.5861V9.90909Z" fill="url(#paint3_linear_5_772)"/>
<path d="M103.123 9.90909H99.8546V89.1818H103.123V9.90909Z" fill="url(#paint4_linear_5_772)"/>
<path d="M78.362 97.843L78.4395 95.7123L76.6381 96.8551L76.1732 96.0416L78.0714 95.0537L76.1732 94.0659L76.6381 93.2523L78.4395 94.3951L78.362 92.2645H79.2917L79.2143 94.3951L81.0157 93.2523L81.4805 94.0659L79.5823 95.0537L81.4805 96.0416L81.0157 96.8551L79.2143 95.7123L79.2917 97.843H78.362Z" fill="black"/>
<path d="M116.197 9.90909H106.392V89.1818H116.197V9.90909Z" fill="url(#paint5_linear_5_772)"/>
<path d="M122.735 9.90909H119.466V89.1818H122.735V9.90909Z" fill="url(#paint6_linear_5_772)"/>
<path d="M135.809 9.90909H126.003V89.1818H135.809V9.90909Z" fill="url(#paint7_linear_5_772)"/>
<path d="M148.883 9.90909H145.615V89.1818H148.883V9.90909Z" fill="url(#paint8_linear_5_772)"/>
<path d="M155.42 9.90909H152.152V89.1818H155.42V9.90909Z" fill="url(#paint9_linear_5_772)"/>
<path d="M129.013 102.182V92.2645H134.998V93.3298H130.213V96.6808H134.688V97.7461H130.213V101.116H135.075V102.182H129.013Z" fill="black"/>
<path d="M168.494 9.90909H158.689V89.1818H168.494V9.90909Z" fill="url(#paint10_linear_5_772)"/>
<path d="M175.032 9.90909H171.763V89.1818H175.032V9.90909Z" fill="url(#paint11_linear_5_772)"/>
<path d="M181.569 9.90909H178.3V89.1818H181.569V9.90909Z" fill="url(#paint12_linear_5_772)"/>
<path d="M194.643 9.90909H184.837V89.1818H194.643V9.90909Z" fill="url(#paint13_linear_5_772)"/>
<path d="M207.717 9.90909H204.449V89.1818H207.717V9.90909Z" fill="url(#paint14_linear_5_772)"/>
<path d="M179.389 102.182V92.2645H182.74C183.515 92.2645 184.151 92.3968 184.648 92.6615C185.145 92.923 185.513 93.283 185.752 93.7414C185.991 94.1998 186.11 94.7212 186.11 95.3055C186.11 95.8899 185.991 96.408 185.752 96.86C185.513 97.3119 185.147 97.667 184.653 97.9253C184.159 98.1803 183.528 98.3079 182.759 98.3079H180.048V97.2231H182.721C183.25 97.2231 183.676 97.1457 183.999 96.9907C184.325 96.8357 184.561 96.6162 184.706 96.3321C184.854 96.0448 184.929 95.7026 184.929 95.3055C184.929 94.9084 184.854 94.5614 184.706 94.2644C184.557 93.9674 184.32 93.7382 183.994 93.5768C183.668 93.4121 183.237 93.3298 182.701 93.3298H180.59V102.182H179.389ZM184.057 97.7268L186.498 102.182H185.103L182.701 97.7268H184.057Z" fill="black"/>
<path d="M220.791 9.90909H210.986V89.1818H220.791V9.90909Z" fill="url(#paint15_linear_5_772)"/>
<path d="M227.329 9.90909H224.06V89.1818H227.329V9.90909Z" fill="url(#paint16_linear_5_772)"/>
<path d="M233.866 9.90909H230.597V89.1818H233.866V9.90909Z" fill="url(#paint17_linear_5_772)"/>
<path d="M246.94 9.90909H237.134V89.1818H246.94V9.90909Z" fill="url(#paint18_linear_5_772)"/>
<path d="M260.014 9.90909H256.746V89.1818H260.014V9.90909Z" fill="url(#paint19_linear_5_772)"/>
<path d="M231.686 102.182V92.2645H235.037C235.812 92.2645 236.448 92.3968 236.945 92.6615C237.442 92.923 237.81 93.283 238.049 93.7414C238.288 94.1998 238.407 94.7212 238.407 95.3055C238.407 95.8899 238.288 96.408 238.049 96.86C237.81 97.3119 237.444 97.667 236.95 97.9253C236.456 98.1803 235.825 98.3079 235.056 98.3079H232.345V97.2231H235.018C235.547 97.2231 235.973 97.1457 236.296 96.9907C236.622 96.8357 236.858 96.6162 237.003 96.3321C237.152 96.0448 237.226 95.7026 237.226 95.3055C237.226 94.9084 237.152 94.5614 237.003 94.2644C236.855 93.9674 236.617 93.7382 236.291 93.5768C235.965 93.4121 235.534 93.3298 234.998 93.3298H232.887V102.182H231.686ZM236.354 97.7268L238.795 102.182H237.4L234.998 97.7268H236.354Z" fill="black"/>
<path d="M273.088 9.90909H263.283V89.1818H273.088V9.90909Z" fill="url(#paint20_linear_5_772)"/>
<path d="M279.626 9.90909H276.357V89.1818H279.626V9.90909Z" fill="url(#paint21_linear_5_772)"/>
<path d="M292.7 9.90909H282.894V89.1818H292.7V9.90909Z" fill="url(#paint22_linear_5_772)"/>
<path d="M299.237 9.90909H295.968V89.1818H299.237V9.90909Z" fill="url(#paint23_linear_5_772)"/>
<path d="M312.311 9.90909H309.043V89.1818H312.311V9.90909Z" fill="url(#paint24_linear_5_772)"/>
<path d="M292.281 97.2231C292.281 98.2691 292.092 99.173 291.715 99.9349C291.337 100.697 290.819 101.284 290.16 101.698C289.502 102.111 288.749 102.317 287.904 102.317C287.058 102.317 286.306 102.111 285.647 101.698C284.988 101.284 284.47 100.697 284.093 99.9349C283.715 99.173 283.526 98.2691 283.526 97.2231C283.526 96.1772 283.715 95.2732 284.093 94.5114C284.47 93.7495 284.988 93.1619 285.647 92.7487C286.306 92.3355 287.058 92.1289 287.904 92.1289C288.749 92.1289 289.502 92.3355 290.16 92.7487C290.819 93.1619 291.337 93.7495 291.715 94.5114C292.092 95.2732 292.281 96.1772 292.281 97.2231ZM291.119 97.2231C291.119 96.3644 290.975 95.6397 290.688 95.0489C290.404 94.4581 290.018 94.011 289.531 93.7075C289.046 93.4041 288.504 93.2523 287.904 93.2523C287.303 93.2523 286.759 93.4041 286.272 93.7075C285.787 94.011 285.402 94.4581 285.114 95.0489C284.83 95.6397 284.688 96.3644 284.688 97.2231C284.688 98.0819 284.83 98.8066 285.114 99.3974C285.402 99.9882 285.787 100.435 286.272 100.739C286.759 101.042 287.303 101.194 287.904 101.194C288.504 101.194 289.046 101.042 289.531 100.739C290.018 100.435 290.404 99.9882 290.688 99.3974C290.975 98.8066 291.119 98.0819 291.119 97.2231Z" fill="black"/>
<path d="M325.385 9.90909H315.58V89.1818H325.385V9.90909Z" fill="url(#paint25_linear_5_772)"/>
<path d="M331.923 9.90909H328.654V89.1818H331.923V9.90909Z" fill="url(#paint26_linear_5_772)"/>
<path d="M338.46 9.90909H335.191V89.1818H338.46V9.90909Z" fill="url(#paint27_linear_5_772)"/>
<path d="M351.534 9.90909H341.728V89.1818H351.534V9.90909Z" fill="url(#paint28_linear_5_772)"/>
<path d="M364.608 9.90909H361.34V89.1818H364.608V9.90909Z" fill="url(#paint29_linear_5_772)"/>
<path d="M336.28 102.182V92.2645H339.631C340.406 92.2645 341.042 92.3968 341.539 92.6615C342.036 92.923 342.404 93.283 342.643 93.7414C342.882 94.1998 343.001 94.7212 343.001 95.3055C343.001 95.8899 342.882 96.408 342.643 96.86C342.404 97.3119 342.038 97.667 341.544 97.9253C341.05 98.1803 340.419 98.3079 339.65 98.3079H336.939V97.2231H339.612C340.141 97.2231 340.567 97.1457 340.89 96.9907C341.216 96.8357 341.452 96.6162 341.597 96.3321C341.746 96.0448 341.82 95.7026 341.82 95.3055C341.82 94.9084 341.746 94.5614 341.597 94.2644C341.449 93.9674 341.211 93.7382 340.885 93.5768C340.559 93.4121 340.128 93.3298 339.592 93.3298H337.481V102.182H336.28ZM340.948 97.7268L343.389 102.182H341.994L339.592 97.7268H340.948Z" fill="black"/>
<path d="M371.145 9.90909H367.877V89.1818H371.145V9.90909Z" fill="url(#paint30_linear_5_772)"/>
<path d="M384.22 9.90909H380.951V89.1818H384.22V9.90909Z" fill="url(#paint31_linear_5_772)"/>
<path d="M397.294 9.90909H387.488V89.1818H397.294V9.90909Z" fill="url(#paint32_linear_5_772)"/>
<path d="M410.368 9.90909H400.562V89.1818H410.368V9.90909Z" fill="url(#paint33_linear_5_772)"/>
<path d="M416.905 9.90909H413.637V89.1818H416.905V9.90909Z" fill="url(#paint34_linear_5_772)"/>
<path d="M392.144 97.843L392.222 95.7123L390.42 96.8551L389.955 96.0416L391.854 95.0537L389.955 94.0659L390.42 93.2523L392.222 94.3951L392.144 92.2645H393.074L392.996 94.3951L394.798 93.2523L395.263 94.0659L393.364 95.0537L395.263 96.0416L394.798 96.8551L392.996 95.7123L393.074 97.843H392.144Z" fill="black"/>
</g>
<defs>
<linearGradient id="paint0_linear_5_772" x1="54.0947" y1="9.90909" x2="54.0947" y2="89.1818" gradientUnits="userSpaceOnUse">
<stop/>
<stop offset="1"/>
</linearGradient>
<linearGradient id="paint1_linear_5_772" x1="67.169" y1="9.90909" x2="67.169" y2="89.1818" gradientUnits="userSpaceOnUse">
<stop/>
<stop offset="1"/>
</linearGradient>
<linearGradient id="paint2_linear_5_772" x1="73.7061" y1="9.90909" x2="73.7061" y2="89.1818" gradientUnits="userSpaceOnUse">
<stop/>
<stop offset="1"/>
</linearGradient>
<linearGradient id="paint3_linear_5_772" x1="86.7804" y1="9.90909" x2="86.7804" y2="89.1818" gradientUnits="userSpaceOnUse">
<stop/>
<stop offset="1"/>
</linearGradient>
<linearGradient id="paint4_linear_5_772" x1="99.8546" y1="9.90909" x2="99.8546" y2="89.1818" gradientUnits="userSpaceOnUse">
<stop/>
<stop offset="1"/>
</linearGradient>
<linearGradient id="paint5_linear_5_772" x1="106.392" y1="9.90909" x2="106.392" y2="89.1818" gradientUnits="userSpaceOnUse">
<stop/>
<stop offset="1"/>
</linearGradient>
<linearGradient id="paint6_linear_5_772" x1="119.466" y1="9.90909" x2="119.466" y2="89.1818" gradientUnits="userSpaceOnUse">
<stop/>
<stop offset="1"/>
</linearGradient>
<linearGradient id="paint7_linear_5_772" x1="126.003" y1="9.90909" x2="126.003" y2="89.1818" gradientUnits="userSpaceOnUse">
<stop/>
<stop offset="1"/>
</linearGradient>
<linearGradient id="paint8_linear_5_772" x1="145.615" y1="9.90909" x2="145.615" y2="89.1818" gradientUnits="userSpaceOnUse">
<stop/>
<stop offset="1"/>
</linearGradient>
<linearGradient id="paint9_linear_5_772" x1="152.152" y1="9.90909" x2="152.152" y2="89.1818" gradientUnits="userSpaceOnUse">
<stop/>
<stop offset="1"/>
</linearGradient>
<linearGradient id="paint10_linear_5_772" x1="158.689" y1="9.90909" x2="158.689" y2="89.1818" gradientUnits="userSpaceOnUse">
<stop/>
<stop offset="1"/>
</linearGradient>
<linearGradient id="paint11_linear_5_772" x1="171.763" y1="9.90909" x2="171.763" y2="89.1818" gradientUnits="userSpaceOnUse">
<stop/>
<stop offset="1"/>
</linearGradient>
<linearGradient id="paint12_linear_5_772" x1="178.3" y1="9.90909" x2="178.3" y2="89.1818" gradientUnits="userSpaceOnUse">
<stop/>
<stop offset="1"/>
</linearGradient>
<linearGradient id="paint13_linear_5_772" x1="184.837" y1="9.90909" x2="184.837" y2="89.1818" gradientUnits="userSpaceOnUse">
<stop/>
<stop offset="1"/>
</linearGradient>
<linearGradient id="paint14_linear_5_772" x1="204.449" y1="9.90909" x2="204.449" y2="89.1818" gradientUnits="userSpaceOnUse">
<stop/>
<stop offset="1"/>
</linearGradient>
<linearGradient id="paint15_linear_5_772" x1="210.986" y1="9.90909" x2="210.986" y2="89.1818" gradientUnits="userSpaceOnUse">
<stop/>
<stop offset="1"/>
</linearGradient>
<linearGradient id="paint16_linear_5_772" x1="224.06" y1="9.90909" x2="224.06" y2="89.1818" gradientUnits="userSpaceOnUse">
<stop/>
<stop offset="1"/>
</linearGradient>
<linearGradient id="paint17_linear_5_772" x1="230.597" y1="9.90909" x2="230.597" y2="89.1818" gradientUnits="userSpaceOnUse">
<stop/>
<stop offset="1"/>
</linearGradient>
<linearGradient id="paint18_linear_5_772" x1="237.134" y1="9.90909" x2="237.134" y2="89.1818" gradientUnits="userSpaceOnUse">
<stop/>
<stop offset="1"/>
</linearGradient>
<linearGradient id="paint19_linear_5_772" x1="256.746" y1="9.90909" x2="256.746" y2="89.1818" gradientUnits="userSpaceOnUse">
<stop/>
<stop offset="1"/>
</linearGradient>
<linearGradient id="paint20_linear_5_772" x1="263.283" y1="9.90909" x2="263.283" y2="89.1818" gradientUnits="userSpaceOnUse">
<stop/>
<stop offset="1"/>
</linearGradient>
<linearGradient id="paint21_linear_5_772" x1="276.357" y1="9.90909" x2="276.357" y2="89.1818" gradientUnits="userSpaceOnUse">
<stop/>
<stop offset="1"/>
</linearGradient>
<linearGradient id="paint22_linear_5_772" x1="282.894" y1="9.90909" x2="282.894" y2="89.1818" gradientUnits="userSpaceOnUse">
<stop/>
<stop offset="1"/>
</linearGradient>
<linearGradient id="paint23_linear_5_772" x1="295.968" y1="9.90909" x2="295.968" y2="89.1818" gradientUnits="userSpaceOnUse">
<stop/>
<stop offset="1"/>
</linearGradient>
<linearGradient id="paint24_linear_5_772" x1="309.043" y1="9.90909" x2="309.043" y2="89.1818" gradientUnits="userSpaceOnUse">
<stop/>
<stop offset="1"/>
</linearGradient>
<linearGradient id="paint25_linear_5_772" x1="315.58" y1="9.90909" x2="315.58" y2="89.1818" gradientUnits="userSpaceOnUse">
<stop/>
<stop offset="1"/>
</linearGradient>
<linearGradient id="paint26_linear_5_772" x1="328.654" y1="9.90909" x2="328.654" y2="89.1818" gradientUnits="userSpaceOnUse">
<stop/>
<stop offset="1"/>
</linearGradient>
<linearGradient id="paint27_linear_5_772" x1="335.191" y1="9.90909" x2="335.191" y2="89.1818" gradientUnits="userSpaceOnUse">
<stop/>
<stop offset="1"/>
</linearGradient>
<linearGradient id="paint28_linear_5_772" x1="341.728" y1="9.90909" x2="341.728" y2="89.1818" gradientUnits="userSpaceOnUse">
<stop/>
<stop offset="1"/>
</linearGradient>
<linearGradient id="paint29_linear_5_772" x1="361.34" y1="9.90909" x2="361.34" y2="89.1818" gradientUnits="userSpaceOnUse">
<stop/>
<stop offset="1"/>
</linearGradient>
<linearGradient id="paint30_linear_5_772" x1="367.877" y1="9.90909" x2="367.877" y2="89.1818" gradientUnits="userSpaceOnUse">
<stop/>
<stop offset="1"/>
</linearGradient>
<linearGradient id="paint31_linear_5_772" x1="380.951" y1="9.90909" x2="380.951" y2="89.1818" gradientUnits="userSpaceOnUse">
<stop/>
<stop offset="1"/>
</linearGradient>
<linearGradient id="paint32_linear_5_772" x1="387.488" y1="9.90909" x2="387.488" y2="89.1818" gradientUnits="userSpaceOnUse">
<stop/>
<stop offset="1"/>
</linearGradient>
<linearGradient id="paint33_linear_5_772" x1="400.562" y1="9.90909" x2="400.562" y2="89.1818" gradientUnits="userSpaceOnUse">
<stop/>
<stop offset="1"/>
</linearGradient>
<linearGradient id="paint34_linear_5_772" x1="413.637" y1="9.90909" x2="413.637" y2="89.1818" gradientUnits="userSpaceOnUse">
<stop/>
<stop offset="1"/>
</linearGradient>
<clipPath id="clip0_5_772">
<rect width="471" height="109" fill="white"/>
</clipPath>
</defs>
</svg>
